<svg id="Capa_1" data-name="Capa 1" xmlns="http://www.w3.org/2000/svg" viewBox="0 0 1280 1013.71"><defs><style>.cls-1{fill:#2bae7c;}</style></defs><path class="cls-1" d="M1112.94,1013.71V658.09c.13-2,.19-4.05.19-6.1,0-2.37-.08-4.77-.29-7.17-3.68-105.42-88.69-187.67-194.56-187.67H723.44v556.56H361.72C162.27,1013.71,0,851.44,0,652V290.28H167.06V646q-.19,3-.19,6c0,2.44.08,4.83.29,7.23,3.7,105.41,88.71,187.62,194.56,187.62H556.56V290.28H918.28C1117.73,290.28,1280,452.55,1280,652v361.72Z"/><circle class="cls-1" cx="83.53" cy="83.53" r="83.53"/></svg>