<svg id="Capa_1" data-name="Capa 1" xmlns="http://www.w3.org/2000/svg" viewBox="0 0 1280 283.04">
    <defs>
        <style>.cls-1{fill:#fff;}.cls-2{fill:#2bae7c;}</style>
    </defs>
    <path class="cls-1" d="M41.42,27.25V279.77H0V27.25Z" />
    <path class="cls-1"
        d="M240.71,86.11q17.61,9.81,28,29.07T279,161.68V279.77H238V167.86q0-26.88-13.44-41.24t-36.7-14.35q-23.25,0-36.88,14.35t-13.62,41.24V279.77H95.92V79.57h41.42v31.61a66.24,66.24,0,0,1,26.34-26q16.53-8.9,37.6-8.9Q223.09,76.3,240.71,86.11Z" />
    <path class="cls-1" d="M409.11,242.71,465.79,79.57h44.69l-76.3,200.2H384L308.1,79.57h44.33Z" />
    <path class="cls-1"
        d="M685.78,86.11q17.63,9.81,28,29.07t10.35,46.5V279.77H683.06V167.86q0-26.88-13.45-41.24t-36.69-14.35q-23.26,0-36.88,14.35t-13.63,41.24V279.77H541V79.57h41.42v31.61a66.31,66.31,0,0,1,26.34-26q16.53-8.9,37.61-8.9Q668.16,76.3,685.78,86.11Z" />
    <path class="cls-1"
        d="M825.12,113.36V224.18q0,11.26,5.26,16.16t18,4.91H873.8v34.52H841.1q-28,0-42.87-13.08t-14.9-42.51V113.36H759.72V79.57h23.61V29.79h41.79V79.57H873.8v33.79Z" />
    <path class="cls-1" d="M953.37,79.57v200.2H912V79.57Z" />
    <path class="cls-1"
        d="M1148.48,89a93,93,0,0,1,36.7,36.33q13.42,23.63,13.44,54.14t-13.81,54.13a95.64,95.64,0,0,1-37.6,36.52Q1123.4,283,1094.7,283q-28.34,0-51.22-12.9a92.63,92.63,0,0,1-36-36.33q-13.08-23.44-13.08-54.32,0-30.53,13.45-54.14A92.83,92.83,0,0,1,1044.57,89q23.23-12.72,52-12.72T1148.48,89Zm-82.11,30q-13.45,7.82-21.62,23.26t-8.18,37.24q0,21.8,7.81,37.42t21.08,23.43a56.39,56.39,0,0,0,29.24,7.82,59.36,59.36,0,0,0,30-8q14-8,22.71-23.43t8.72-37.24q0-21.81-8.36-37.24T1125.59,119a59.62,59.62,0,0,0-29.8-7.81A57.54,57.54,0,0,0,1066.37,119Z" />
    <path class="cls-2"
        d="M1237.31,237.26a23.58,23.58,0,0,1,17.62-7.27A24.83,24.83,0,0,1,1280,255.06a23.62,23.62,0,0,1-7.27,17.62,24.56,24.56,0,0,1-17.8,7.09,24.82,24.82,0,0,1-24.71-24.71A24.5,24.5,0,0,1,1237.31,237.26Z" />
    <path class="cls-2"
        d="M914.13,7.63A25.64,25.64,0,0,1,933,0a25.2,25.2,0,0,1,18.53,7.63,25.66,25.66,0,0,1,7.63,18.89,25.67,25.67,0,0,1-7.63,18.9A25.24,25.24,0,0,1,933,53.05,26.06,26.06,0,0,1,906.5,26.52,25.66,25.66,0,0,1,914.13,7.63Z" />
</svg>